<svg xmlns="http://www.w3.org/2000/svg" viewBox="0 0 24 24">
  <g fill="none" stroke="currentColor" stroke-width="1.8" stroke-linecap="round" stroke-linejoin="round">
    <circle cx="10.5" cy="13.5" r="7"/>
    <path d="M5.1 9.1c2.5-.8 4.8-.1 6.4 2M4.3 15.9c1.5-2.2 3.5-3.2 6.1-2.8M10.8 6.5c2 1.9 2.9 4.1 2.7 6.6M11.1 20.4c.1-2.7-.9-4.8-2.9-6.3"/>
    <circle cx="18" cy="5.5" r="2"/>
    <path d="M18 1.8v1M18 8.2v1M14.3 5.5h1M20.7 5.5h1M15.4 2.9l.7.7M19.9 7.4l.7.7M20.6 2.9l-.7.7M16.1 7.4l-.7.7"/>
  </g>
</svg>
